<svg width="21" height="21" viewBox="0 0 21 21" fill="none" xmlns="http://www.w3.org/2000/svg">
<path d="M10.4809 5.6004C7.50736 5.6004 5.10893 7.81874 5.10893 10.569C5.10893 13.3192 7.50736 15.5375 10.4809 15.5375C13.4543 15.5375 15.8528 13.3192 15.8528 10.569C15.8528 7.81874 13.4543 5.6004 10.4809 5.6004ZM10.4809 13.7992C8.55931 13.7992 6.9884 12.3506 6.9884 10.569C6.9884 8.78737 8.55463 7.33875 10.4809 7.33875C12.4071 7.33875 13.9733 8.78737 13.9733 10.569C13.9733 12.3506 12.4024 13.7992 10.4809 13.7992V13.7992ZM17.3255 5.39716C17.3255 6.04147 16.7645 6.55606 16.0725 6.55606C15.3759 6.55606 14.8195 6.03715 14.8195 5.39716C14.8195 4.75717 15.3806 4.23826 16.0725 4.23826C16.7645 4.23826 17.3255 4.75717 17.3255 5.39716ZM20.8834 6.57336C20.8039 5.02095 20.4205 3.64584 19.1909 2.51288C17.966 1.37993 16.4793 1.02534 14.8008 0.947502C13.071 0.856692 7.88606 0.856692 6.1562 0.947502C4.48244 1.02101 2.9957 1.3756 1.76609 2.50856C0.536491 3.64151 0.157791 5.01662 0.073636 6.56903C-0.0245453 8.169 -0.0245453 12.9646 0.073636 14.5646C0.153116 16.117 0.536491 17.4921 1.76609 18.625C2.9957 19.758 4.47777 20.1126 6.1562 20.1904C7.88606 20.2812 13.071 20.2812 14.8008 20.1904C16.4793 20.1169 17.966 19.7623 19.1909 18.625C20.4159 17.4921 20.7992 16.117 20.8834 14.5646C20.9816 12.9646 20.9816 8.17333 20.8834 6.57336V6.57336ZM18.6486 16.2813C18.2839 17.1289 17.578 17.7818 16.6569 18.1234C15.2777 18.6294 12.005 18.5126 10.4809 18.5126C8.95671 18.5126 5.67932 18.625 4.30478 18.1234C3.38842 17.7861 2.68245 17.1332 2.3131 16.2813C1.76609 15.0056 1.89233 11.9787 1.89233 10.569C1.89233 9.15926 1.77077 6.12796 2.3131 4.85663C2.67778 4.00907 3.38375 3.35611 4.30478 3.01449C5.684 2.50856 8.95671 2.62531 10.4809 2.62531C12.005 2.62531 15.2824 2.51288 16.6569 3.01449C17.5733 3.35179 18.2793 4.00475 18.6486 4.85663C19.1956 6.13228 19.0694 9.15926 19.0694 10.569C19.0694 11.9787 19.1956 15.01 18.6486 16.2813Z" fill="white"/>
</svg>
