<svg width="27" height="21" viewBox="0 0 27 21" fill="none" xmlns="http://www.w3.org/2000/svg">
<path d="M26.0589 2.19354C26.2421 1.43654 26.0589 0.879395 25.1778 0.879395H22.262C21.5194 0.879395 21.1778 1.35782 20.9947 1.89074C20.9947 1.89074 19.5095 6.31767 17.4106 9.1882C16.7324 10.0179 16.4205 10.2843 16.0492 10.2843C15.8661 10.2843 15.5839 10.0179 15.5839 9.26087V2.19354C15.5839 1.28515 15.376 0.879395 14.7621 0.879395H10.178C9.7127 0.879395 9.43547 1.30331 9.43547 1.69695C9.43547 2.5569 10.485 2.75675 10.5939 5.17914V10.4357C10.5939 11.5864 10.4256 11.7983 10.0543 11.7983C9.06419 11.7983 6.6583 7.35324 5.23258 2.26621C4.94546 1.27909 4.66328 0.879395 3.91577 0.879395H0.999982C0.168314 0.879395 0 1.35782 0 1.89074C0 2.83548 0.990081 7.52886 4.60883 13.7302C7.01968 17.9633 10.4157 20.2585 13.5047 20.2585C15.3611 20.2585 15.5888 19.7498 15.5888 18.8717C15.5888 14.8263 15.4205 14.4448 16.3512 14.4448C16.7819 14.4448 17.5244 14.7113 19.2571 16.7521C21.2372 19.1745 21.564 20.2585 22.6729 20.2585H25.5886C26.4203 20.2585 26.8411 19.7498 26.5985 18.7445C26.0441 16.631 22.2966 12.2828 22.1283 11.9921C21.6976 11.3139 21.8214 11.0111 22.1283 10.4055C22.1333 10.3994 25.6926 4.27074 26.0589 2.19354V2.19354Z" fill="white"/>
</svg>
